<?xml version="1.0" encoding="UTF-8" standalone="no"?>
<svg
   xmlns:dc="http://purl.org/dc/elements/1.1/"
   xmlns:cc="http://creativecommons.org/ns#"
   xmlns:rdf="http://www.w3.org/1999/02/22-rdf-syntax-ns#"
   xmlns:svg="http://www.w3.org/2000/svg"
   xmlns="http://www.w3.org/2000/svg"
   xmlns:sodipodi="http://sodipodi.sourceforge.net/DTD/sodipodi-0.dtd"
   xmlns:inkscape="http://www.inkscape.org/namespaces/inkscape"
   enable-background="new 0 0 24 24"
   viewBox="0 0 24 24"
   fill="black"
   width="48px"
   height="48px"
   version="1.1"
   id="svg912"
   sodipodi:docname="no-image.svg"
   inkscape:version="1.0.2 (1.0.2+r75+1)">
  <metadata
     id="metadata918">
    <rdf:RDF>
      <cc:Work
         rdf:about="">
        <dc:format>image/svg+xml</dc:format>
        <dc:type
           rdf:resource="http://purl.org/dc/dcmitype/StillImage" />
      </cc:Work>
    </rdf:RDF>
  </metadata>
  <defs
     id="defs916" />
  <sodipodi:namedview
     pagecolor="#ffffff"
     bordercolor="#666666"
     borderopacity="1"
     objecttolerance="10"
     gridtolerance="10"
     guidetolerance="10"
     inkscape:pageopacity="0"
     inkscape:pageshadow="2"
     inkscape:window-width="1916"
     inkscape:window-height="1052"
     id="namedview914"
     showgrid="false"
     inkscape:zoom="9.2708333"
     inkscape:cx="13.374098"
     inkscape:cy="25.663766"
     inkscape:window-x="1920"
     inkscape:window-y="0"
     inkscape:window-maximized="1"
     inkscape:current-layer="g910" />
  <g
     id="g910">
    <rect
       fill="none"
       height="24"
       width="24"
       id="rect906" />
    <path
       d="M10.94,8.12L7.48,4.66L9,3h6l1.83,2H20c1.1,0,2,0.9,2,2v12c0,0.05-0.01,0.1-0.02,0.16l-5.1-5.1C16.96,13.71,17,13.36,17,13 c0-2.76-2.24-5-5-5C11.64,8,11.29,8.04,10.94,8.12z M20.49,23.31L18.17,21H4c-1.1,0-2-0.9-2-2V7c0-0.59,0.27-1.12,0.68-1.49l-2-2 L2.1,2.1l19.8,19.8L20.49,23.31z M14.49,17.32l-1.5-1.5C12.67,15.92,12.35,16,12,16c-1.66,0-3-1.34-3-3c0-0.35,0.08-0.67,0.19-0.98 l-1.5-1.5C7.25,11.24,7,12.09,7,13c0,2.76,2.24,5,5,5C12.91,18,13.76,17.75,14.49,17.32z"
       id="path908"
       style="fill:#686868;fill-opacity:1" />
  </g>
</svg>
