<?xml version="1.0" encoding="UTF-8"?>
<svg id="svg5361" width="76.267mm" height="68.608mm" version="1.1" viewBox="0 0 76.267 68.608" xmlns="http://www.w3.org/2000/svg" xmlns:cc="http://creativecommons.org/ns#" xmlns:dc="http://purl.org/dc/elements/1.1/" xmlns:rdf="http://www.w3.org/1999/02/22-rdf-syntax-ns#">
 <metadata id="metadata5358">
  <rdf:RDF>
   <cc:Work rdf:about="">
    <dc:format>image/svg+xml</dc:format>
    <dc:type rdf:resource="http://purl.org/dc/dcmitype/StillImage"/>
    <dc:title/>
   </cc:Work>
  </rdf:RDF>
 </metadata>
 <g id="layer1" transform="translate(35.866 -99.41)">
  <path id="path4446" d="m39.52 107.21v11.027h-13.826v-11.027c-0.0067-3.8118 3.078-6.9067 6.889-6.913h0.03493c3.8075 0 6.895 3.0836 6.9017 6.8912z" fill="none" stroke-miterlimit="10" stroke-width="1.7639"/>
  <path id="path4450" d="m-17.125 100.29h49.708c-3.8107 6e-3 -6.8957 3.1013-6.889 6.913v50.651c-6e-3 5.1269-4.1638 9.2798-9.2908 9.2798h-0.02787c-0.21449 0-0.42686-8e-3 -0.63888-0.0229-4.8704-0.34078-8.6462-4.3938-8.6409-9.277v-6.0064h-31.133v-0.0829l0.32844-44.953c0-3.6206 2.9637-6.5017 6.5842-6.5017z" fill="none" stroke-miterlimit="10" stroke-width="1.7639"/>
  <path id="path4454" d="m15.736 167.11-0.0011 0.0229h-41.428c-5.1273 0-9.2848-4.1529-9.2908-9.2798v-6.0265h42.079v6.0064c-0.0056 4.8832 3.7701 8.9362 8.6409 9.277z" fill="none" stroke-miterlimit="10" stroke-width="1.7639"/>
  <path id="path4458" d="m12.503 149.31h-0.0028c-0.33161-1e-3 -0.64911-0.13406-0.8823-0.36936l-2.5072-2.5326c-0.31856-0.31468-0.44309-0.77682-0.32597-1.2097 0.11677-0.4325 0.45685-0.76905 0.89041-0.88124 0.43392-0.11289 0.89429 0.0169 1.2061 0.33796l1.627 1.6425 4.0714-4.0696c0.48648-0.48648 1.2753-0.48648 1.7614 0 0.48683 0.48684 0.48683 1.2749 0 1.7618l-4.9565 4.9551c-0.23424 0.23354-0.55104 0.36513-0.88159 0.36513"/>
  <path id="path4462" d="m15.66 127.94h-29.9c-0.68792 0-1.2457-0.55704-1.2457-1.2457 0-0.68792 0.55774-1.2457 1.2457-1.2457h29.9c0.68792 0 1.246 0.55774 1.246 1.2457 0 0.68862-0.5581 1.2457-1.246 1.2457"/>
  <path id="path4466" d="m15.66 133.7h-29.9c-0.68792 0-1.2457-0.55704-1.2457-1.2457 0-0.68792 0.55774-1.2457 1.2457-1.2457h29.9c0.68792 0 1.246 0.55774 1.246 1.2457 0 0.68862-0.5581 1.2457-1.246 1.2457"/>
  <path id="path4470" d="m15.66 115.78h-29.9c-0.68792 0-1.2457-0.55739-1.2457-1.2457 0-0.68792 0.55774-1.246 1.2457-1.246h29.9c0.68792 0 1.246 0.55809 1.246 1.246 0 0.68827-0.5581 1.2457-1.246 1.2457"/>
  <path id="path4474" d="m15.66 121.55h-29.9c-0.68792 0-1.2457-0.55739-1.2457-1.2457 0-0.68792 0.55774-1.246 1.2457-1.246h29.9c0.68792 0 1.246 0.55809 1.246 1.246 0 0.68827-0.5581 1.2457-1.246 1.2457"/>
 </g>
</svg>
