<?xml version="1.0" encoding="UTF-8"?>
<!-- Created with Inkscape (http://www.inkscape.org/) -->
<svg id="svg3672" width="104.77mm" height="92.13mm" version="1.1" viewBox="0 0 104.77 92.13" xmlns="http://www.w3.org/2000/svg" xmlns:cc="http://creativecommons.org/ns#" xmlns:dc="http://purl.org/dc/elements/1.1/" xmlns:rdf="http://www.w3.org/1999/02/22-rdf-syntax-ns#">
 <metadata id="metadata3669">
  <rdf:RDF>
   <cc:Work rdf:about="">
    <dc:format>image/svg+xml</dc:format>
    <dc:type rdf:resource="http://purl.org/dc/dcmitype/StillImage"/>
    <dc:title/>
   </cc:Work>
  </rdf:RDF>
 </metadata>
 <g id="layer1" transform="translate(-4.687 -200.66)">
  <path id="path4512" d="m34.903 240.41c-2.2751-3.84-3.581-8.3217-3.581-13.109 0-14.223 11.53-25.753 25.753-25.753 14.223 0 25.753 11.529 25.753 25.753 0 14.223-11.53 25.753-25.753 25.753-1.1853 0-2.3516-0.0804-3.4946-0.23495" fill="none" stroke-miterlimit="10" stroke-width="1.7639"/>
  <path id="path4516" d="m57.074 266.16c0 14.223-11.53 25.753-25.753 25.753-14.223 0-25.753-11.53-25.753-25.753 0-14.223 11.53-25.753 25.753-25.753 5.3336 0 10.288 1.6217 14.399 4.3984 3.0741 2.0764 5.6758 4.7999 7.6101 7.9742 2.3756 3.8996 3.744 8.4801 3.744 13.38z" fill="none" stroke-miterlimit="10" stroke-width="1.7639"/>
  <path id="path4520" d="m79.084 240.68c1.222-0.1778 2.4719-0.27023 3.7433-0.27023 14.223 0 25.753 11.53 25.753 25.753 0 14.223-11.53 25.753-25.753 25.753-14.223 0-25.753-11.529-25.753-25.753 0-4.9308 1.3861-9.5384 3.7899-13.454" fill="none" stroke-miterlimit="10" stroke-width="1.7639"/>
  <path id="path4524" d="m56.722 210.22-10.172 17.619 10.172 14.303 10.172-15.27z" fill="none" stroke-miterlimit="10" stroke-width="1.7639"/>
  <path id="path4528" d="m17.221 261.11v10.574c0 1.6397 0.87454 3.1552 2.2952 3.9754l9.1574 5.2867c1.4203 0.82056 3.1704 0.82056 4.591 0l9.1574-5.2867c1.4203-0.82021 2.2948-2.3357 2.2948-3.9754v-10.574c0-1.6401-0.87454-3.1556-2.2948-3.9758l-9.1574-5.2871c-1.4206-0.81985-3.1708-0.81985-4.591 0l-9.1574 5.2871c-1.4206 0.82021-2.2952 2.3358-2.2952 3.9758z" fill="none" stroke-miterlimit="10" stroke-width="1.7639"/>
  <path id="path4532" d="m26.721 270.98 3.6269-5.2186-3.405-4.9597h1.0922l2.461 3.7014c0.06174 0.0988 0.13264 0.20955 0.21308 0.33302 0.07973 0.12347 0.14464 0.22825 0.19403 0.31468 0.06174-0.0864 0.13229-0.19438 0.21308-0.32385 0.08008-0.12983 0.15099-0.23742 0.21272-0.32385l2.4426-3.7014h1.0735l-3.405 4.9597 3.6086 5.2186h-1.0735l-2.6091-3.8866c-0.07408-0.11077-0.15734-0.23389-0.24977-0.36971-0.09278-0.13582-0.16969-0.24694-0.23142-0.33337-0.04939 0.0864-0.12347 0.19755-0.2219 0.33337-0.09878 0.13582-0.18556 0.25894-0.25929 0.36971l-2.6278 3.8866z" fill="#567b75"/>
  <path id="path4536" d="m26.721 270.98 3.6269-5.2186-3.405-4.9597h1.0922l2.461 3.7014c0.06174 0.0988 0.13264 0.20955 0.21308 0.33302 0.07973 0.12347 0.14464 0.22825 0.19403 0.31468 0.06174-0.0864 0.13229-0.19438 0.21308-0.32385 0.08008-0.12983 0.15099-0.23742 0.21272-0.32385l2.4426-3.7014h1.0735l-3.405 4.9597 3.6086 5.2186h-1.0735l-2.6091-3.8866c-0.07408-0.11077-0.15734-0.23389-0.24977-0.36971-0.09278-0.13582-0.16969-0.24694-0.23142-0.33337-0.04939 0.0864-0.12347 0.19755-0.2219 0.33337-0.09878 0.13582-0.18556 0.25894-0.25929 0.36971l-2.6278 3.8866z" fill="none" stroke-miterlimit="10" stroke-width=".70556"/>
  <path id="path4540" d="m72.068 278.22v-12.347l10.231 5.9972v-5.9972l-15.169-8.4667v18.344z" fill="none" stroke-linecap="round" stroke-linejoin="round" stroke-miterlimit="10" stroke-width="1.4111"/>
  <path id="path4544" d="m87.413 275.22v-17.992l4.9389 3.175v17.639z" fill="none" stroke-linecap="round" stroke-linejoin="round" stroke-miterlimit="10" stroke-width="1.4111"/>
  <path id="path4548" d="m92.352 278.04 5.2917-2.8222v-17.992l-5.2917 3.175" fill="none" stroke-linecap="round" stroke-linejoin="round" stroke-miterlimit="10" stroke-width="1.4111"/>
  <path id="path4552" d="m82.298 271.87 4.9389-2.8222" fill="none" stroke-linecap="round" stroke-linejoin="round" stroke-miterlimit="10" stroke-width="1.4111"/>
  <path id="path4556" d="m87.413 257.23 5.2917-2.8222 4.9389 2.8222" fill="none" stroke-linecap="round" stroke-linejoin="round" stroke-miterlimit="10" stroke-width="1.4111"/>
  <path id="path4560" d="m66.952 257.58 5.2917-3.175 14.993 8.643-4.9389 2.8222" fill="none" stroke-linecap="round" stroke-linejoin="round" stroke-miterlimit="10" stroke-width="1.4111"/>
  <path id="path4564" d="m72.068 278.04 5.1153-2.8222v-6.35" fill="none" stroke-linecap="round" stroke-linejoin="round" stroke-miterlimit="10" stroke-width="1.4111"/>
 </g>
</svg>
