<?xml version="1.0" encoding="UTF-8"?>
<!-- Created with Inkscape (http://www.inkscape.org/) -->
<svg id="svg7262" width="71.359mm" height="71.359mm" version="1.1" viewBox="0 0 71.359 71.359" xmlns="http://www.w3.org/2000/svg" xmlns:cc="http://creativecommons.org/ns#" xmlns:dc="http://purl.org/dc/elements/1.1/" xmlns:rdf="http://www.w3.org/1999/02/22-rdf-syntax-ns#">
 <metadata id="metadata7259">
  <rdf:RDF>
   <cc:Work rdf:about="">
    <dc:format>image/svg+xml</dc:format>
    <dc:type rdf:resource="http://purl.org/dc/dcmitype/StillImage"/>
    <dc:title/>
   </cc:Work>
  </rdf:RDF>
 </metadata>
 <g id="layer1" transform="translate(74.233 -140.37)">
  <g id="g7857">
   <path id="path4478" d="m-13.356 141.25h-56.394c-1.9883 0-3.6008 1.5579-3.6008 3.4787v37.094h69.595v-37.094c0-1.9209-1.6125-3.4787-3.6012-3.4787z" fill="none" stroke-miterlimit="10" stroke-width="1.7639"/>
   <path id="path4482" d="m-7.3575 196.45h-62.393c-1.9883 0-3.6008-1.6126-3.6008-3.6012v-10.798h69.595v10.798c0 1.9886-1.6125 3.6012-3.6012 3.6012z" fill="none" stroke-miterlimit="10" stroke-width="1.7639"/>
   <path id="path4484" d="m-68.552 146.05h59.996v35.997h-59.996z" fill="none" stroke-miterlimit="10" stroke-width="1.7639"/>
   <path id="path4488" d="m-25.918 161.26c-0.51364 0-1.0262 0.0515-1.53 0.15311-0.37959-1.8948-1.6073-3.5116-3.3306-4.3864-1.723-0.87454-3.7525-0.91158-5.5065-0.0995-1.5875-4.3727-6.4184-6.6298-10.791-5.0426-4.372 1.5875-6.6298 6.4188-5.0426 10.791-3.8298 0.121-6.8552 3.2911-6.7977 7.1226 0.0575 3.8315 3.1768 6.9092 7.009 6.9155h25.989c4.2672 0 7.7265-3.4593 7.7265-7.7269 0-4.2668-3.4593-7.7265-7.7265-7.7265z" fill="none" stroke-miterlimit="10" stroke-width="1.7639"/>
   <path id="path4492" d="m-22.952 206.42h-2.4024c-5.3061 0-7.1995-5.0691-7.1995-9.9653h-11.999c0 4.8962-1.8941 9.9653-7.1998 9.9653h-2.4021c-1.3236 0-2.3975 0.99096-2.3975 2.2123v2.2169h35.997v-2.2169c0-1.2213-1.0739-2.2123-2.3975-2.2123z" fill="none" stroke-miterlimit="10" stroke-width="1.7639"/>
   <path id="path4496" d="m-64.002 154.73c-0.21202 0-0.42333-0.0808-0.58455-0.24236-0.32314-0.32315-0.32314-0.84526 0-1.1684l3.3066-3.3062c0.32209-0.3235 0.84596-0.3235 1.1684 0 0.32314 0.32314 0.32314 0.84525 0 1.1684l-3.3062 3.3062c-0.16122 0.16157-0.37253 0.24236-0.5842 0.24236"/>
   <path id="path4500" d="m-64.002 159.69c-0.21202 0-0.42333-0.0808-0.58455-0.24236-0.32314-0.32314-0.32314-0.84526 0-1.1684l8.2659-8.2663c0.32244-0.32314 0.84667-0.32314 1.1688 0 0.3235 0.32315 0.3235 0.84596 0 1.1691l-8.2659 8.2656c-0.16122 0.16157-0.37253 0.24236-0.5842 0.24236"/>
   <path id="path4504" d="m-35.653 188.93c0 1.5709-1.2735 2.8444-2.8444 2.8444-1.5709 0-2.8444-1.2735-2.8444-2.8444s1.2735-2.8444 2.8444-2.8444c1.5709 0 2.8444 1.2735 2.8444 2.8444"/>
   <path id="path4508" d="m-68.491 181.96 59.972-35.983" fill="none" stroke-miterlimit="10" stroke-width="1.7639"/>
  </g>
 </g>
</svg>
