<?xml version="1.0" encoding="UTF-8"?>
<!-- Created with Inkscape (http://www.inkscape.org/) -->
<svg id="svg8056" width="85.473mm" height="85.474mm" version="1.1" viewBox="0 0 85.473 85.474" xmlns="http://www.w3.org/2000/svg" xmlns:cc="http://creativecommons.org/ns#" xmlns:dc="http://purl.org/dc/elements/1.1/" xmlns:rdf="http://www.w3.org/1999/02/22-rdf-syntax-ns#">
 <metadata id="metadata8053">
  <rdf:RDF>
   <cc:Work rdf:about="">
    <dc:format>image/svg+xml</dc:format>
    <dc:type rdf:resource="http://purl.org/dc/dcmitype/StillImage"/>
    <dc:title/>
   </cc:Work>
  </rdf:RDF>
 </metadata>
 <g id="layer1" transform="translate(8.7189 -81.15)">
  <g id="g8730">
   <g id="g4308" transform="matrix(.35278 0 0 -.35278 15.264 121.7)">
    <path id="path4310" d="m0 0c-21.342 0-38.756-17.283-38.756-38.755 0-21.369 17.386-38.755 38.756-38.755 21.369 0 38.755 17.386 38.755 38.755s-17.386 38.755-38.755 38.755z" fill="none" stroke-miterlimit="10" stroke-width="5"/>
   </g>
   <g id="g4312" transform="matrix(.35278 0 0 -.35278 4.2867 127.32)">
    <path id="path4314" d="m0 0 20.454 38.756 10.115 17.095c4.598 7.665 10.506 12.498 18.217 12.498 8.667 0 16.368-5.816 18.729-14.142 0.265-0.936 0.204-1.024 0.204-6.512v-15.744c0-3.229 0.103-38.465 0.103-42.357" fill="none" stroke-miterlimit="10" stroke-width="5"/>
   </g>
   <g id="g4316" transform="matrix(.35278 0 0 -.35278 39.1 135.43)">
    <path id="path4318" d="m0 0c0-21.369 17.386-38.755 38.755-38.755 21.37 0 38.756 17.386 38.756 38.755 0 21.472-17.414 38.756-38.756 38.756-21.369 0-38.755-17.386-38.755-38.756z" fill="none" stroke-miterlimit="10" stroke-width="5"/>
   </g>
   <g id="g4320" transform="matrix(.35278 0 0 -.35278 63.749 127.39)">
    <path id="path4322" d="m0 0-20.455 38.755-10.114 17.096c-4.598 7.664-10.506 12.497-18.217 12.497-8.667 0-16.368-5.816-18.73-14.142-0.264-0.935-0.203-1.024-0.203-6.511v-15.745c0-3.229-0.103-38.465-0.103-42.357" fill="none" stroke-miterlimit="10" stroke-width="5"/>
   </g>
   <g id="g4324" transform="matrix(.35278 0 0 -.35278 28.516 138.74)">
    <path id="path4326" d="m0 0h31.562" fill="none" stroke-miterlimit="10" stroke-width="5"/>
   </g>
   <g id="g4328" transform="matrix(.35278 0 0 -.35278 28.868 136.73)">
    <path id="path4330" d="m0 0h28.894" fill="none" stroke-miterlimit="10" stroke-width="5"/>
   </g>
   <g id="g4332" transform="matrix(.35278 0 0 -.35278 28.213 115.93)">
    <path id="path4334" d="m0 0h32.476" fill="none" stroke-miterlimit="10" stroke-width="5"/>
   </g>
   <g id="g4336" transform="matrix(.35278 0 0 -.35278 19.098 103.65)">
    <path id="path4338" d="m0 0 5.023 11.482s8.613 7.177 18.661-2.152l-2.154-14.713" fill="none" stroke-miterlimit="10" stroke-width="5"/>
   </g>
   <g id="g4340" transform="matrix(.35278 0 0 -.35278 48.974 103.78)">
    <path id="path4342" d="m0 0-5.024 11.483s-8.613 7.177-18.661-2.153l2.154-14.713" fill="none" stroke-miterlimit="10" stroke-width="5"/>
   </g>
   <g id="g4344" transform="matrix(.35278 0 0 -.35278 56.653 143.64)">
    <path id="path4346" d="m0 0c-0.757 0-1.513 0.289-2.088 0.865-1.155 1.155-1.155 3.021 0 4.175l11.812 11.813c1.152 1.155 3.024 1.155 4.175 0 1.156-1.155 1.156-3.022 0-4.176l-11.812-11.812c-0.575-0.576-1.331-0.865-2.087-0.865"/>
   </g>
   <g id="g4348" transform="matrix(.35278 0 0 -.35278 49.361 143.64)">
    <path id="path4350" d="m0 0c-0.756 0-1.512 0.289-2.088 0.865-1.154 1.155-1.154 3.021 0 4.175l29.531 29.531c1.152 1.155 3.024 1.155 4.175 0 1.155-1.155 1.155-3.021 0-4.175l-29.53-29.531c-0.576-0.576-1.332-0.865-2.088-0.865"/>
   </g>
   <g id="g4352" transform="matrix(.35278 0 0 -.35278 75.873 123.89)">
    <path id="path4354" d="m0 0c0-65.524-53.118-118.64-118.64-118.64-65.525 0-118.64 53.12-118.64 118.64 0 65.525 53.118 118.64 118.64 118.64 65.526 0 118.64-53.119 118.64-118.64z" fill="none" stroke-miterlimit="10" stroke-width="5"/>
   </g>
   <g id="g4356" transform="matrix(.35278 0 0 -.35278 3.0371 152.22)">
    <path id="path4358" d="m0 0 177.05 158.49" fill="none" stroke-miterlimit="10" stroke-width="5"/>
   </g>
  </g>
 </g>
</svg>
