<?xml version="1.0" encoding="UTF-8" standalone="no"?>
<svg
   xmlns:dc="http://purl.org/dc/elements/1.1/"
   xmlns:cc="http://creativecommons.org/ns#"
   xmlns:rdf="http://www.w3.org/1999/02/22-rdf-syntax-ns#"
   xmlns:svg="http://www.w3.org/2000/svg"
   xmlns="http://www.w3.org/2000/svg"
   xmlns:sodipodi="http://sodipodi.sourceforge.net/DTD/sodipodi-0.dtd"
   xmlns:inkscape="http://www.inkscape.org/namespaces/inkscape"
   viewBox="0 0 76.927559 55.828812"
   x="0px"
   y="0px"
   version="1.1"
   id="svg16"
   sodipodi:docname="tokens.svg"
   inkscape:version="0.92.5 (2060ec1f9f, 2020-04-08)"
   width="76.927559"
   height="55.828812">
  <metadata
     id="metadata22">
    <rdf:RDF>
      <cc:Work
         rdf:about="">
        <dc:format>image/svg+xml</dc:format>
        <dc:type
           rdf:resource="http://purl.org/dc/dcmitype/StillImage" />
        <dc:title>13. token</dc:title>
      </cc:Work>
    </rdf:RDF>
  </metadata>
  <defs
     id="defs20" />
  <sodipodi:namedview
     pagecolor="#ffffff"
     bordercolor="#666666"
     borderopacity="1"
     objecttolerance="10"
     gridtolerance="10"
     guidetolerance="10"
     inkscape:pageopacity="0"
     inkscape:pageshadow="2"
     inkscape:window-width="1916"
     inkscape:window-height="1052"
     id="namedview18"
     showgrid="false"
     inkscape:object-paths="true"
     inkscape:snap-midpoints="true"
     inkscape:zoom="4.4216876"
     inkscape:cx="24.065567"
     inkscape:cy="41.237433"
     inkscape:window-x="0"
     inkscape:window-y="0"
     inkscape:window-maximized="0"
     inkscape:current-layer="svg16"
     fit-margin-top="0"
     fit-margin-left="0"
     fit-margin-right="0"
     fit-margin-bottom="0" />
  <title
     id="title2">13. token</title>
  <g
     id="g4890"
     transform="matrix(0.46327121,0,0,0.46327121,2.6085783,19.434207)">
    <g
       transform="translate(27.395704,-51.949957)"
       id="g10"
       data-name="Layer 14">
      <path
         inkscape:connector-curvature="0"
         id="path4"
         d="M 50,10 A 40,40 0 1 0 90,50 40,40 0 0 0 50,10 Z m 33.4,32.53 a 0.5,0.5 0 0 1 0.59,0.38 36,36 0 0 1 0.59,4 0.51,0.51 0 0 1 -0.46,0.54 v 0 A 0.5,0.5 0 0 1 83.62,46.99 34.08,34.08 0 0 0 83,43.12 0.49,0.49 0 0 1 83.4,42.53 Z M 80.76,35 a 0.5,0.5 0 0 1 0.66,0.24 34.06,34.06 0 0 1 1.51,3.76 0.5,0.5 0 0 1 -0.31,0.63 H 82.46 A 0.52,0.52 0 0 1 81.98,39.29 31.35,31.35 0 0 0 80.52,35.63 0.5,0.5 0 0 1 80.76,35 Z m -4.32,-6.7 a 0.49,0.49 0 0 1 0.7,0.07 36,36 0 0 1 2.34,3.31 0.51,0.51 0 0 1 -0.42,0.77 0.5,0.5 0 0 1 -0.43,-0.24 32.62,32.62 0 0 0 -2.27,-3.21 0.5,0.5 0 0 1 0.08,-0.71 z m -5.75,-5.54 a 0.51,0.51 0 0 1 0.71,-0.09 37,37 0 0 1 3,2.69 0.5,0.5 0 0 1 0,0.7 0.51,0.51 0 0 1 -0.36,0.15 0.54,0.54 0 0 1 -0.35,-0.14 34.82,34.82 0 0 0 -3,-2.61 0.5,0.5 0 0 1 0,-0.71 z M 63.82,18.7 a 0.49,0.49 0 0 1 0.66,-0.24 35,35 0 0 1 3.58,1.9 0.5,0.5 0 0 1 0.17,0.69 0.52,0.52 0 0 1 -0.43,0.24 0.48,0.48 0 0 1 -0.26,-0.07 33.2,33.2 0 0 0 -3.48,-1.86 0.49,0.49 0 0 1 -0.24,-0.67 z m -7,-2.74 a 32.85,32.85 0 0 1 3.93,1 0.50559371,0.50559371 0 0 1 -0.15,1 h -0.16 a 32.77,32.77 0 0 0 -3.81,-1 0.50894499,0.50894499 0 0 1 0.19,-1 z m -8.07,-0.64 a 34.44,34.44 0 0 1 4.06,0.09 0.5,0.5 0 0 1 0,1 v 0 a 37.06,37.06 0 0 0 -3.94,-0.08 0.49,0.49 0 0 1 -0.52,-0.48 0.51,0.51 0 0 1 0.35,-0.54 z m -8,1.24 a 33.37,33.37 0 0 1 4,-0.85 0.5,0.5 0 0 1 0.57,0.41 0.52,0.52 0 0 1 -0.42,0.58 31.37,31.37 0 0 0 -3.85,0.82 h -0.13 a 0.50487622,0.50487622 0 0 1 -0.14,-1 z m -7.49,3.06 a 35.08,35.08 0 0 1 3.66,-1.75 0.51,0.51 0 0 1 0.65,0.27 0.52,0.52 0 0 1 -0.27,0.66 31.23,31.23 0 0 0 -3.55,1.7 0.54,0.54 0 0 1 -0.25,0.06 0.49,0.49 0 0 1 -0.43,-0.26 0.5,0.5 0 0 1 0.14,-0.69 z m -6.58,4.72 a 35.22,35.22 0 0 1 3.16,-2.55 0.5,0.5 0 0 1 0.69,0.11 0.51,0.51 0 0 1 -0.11,0.7 33.14,33.14 0 0 0 -3.06,2.48 0.51,0.51 0 0 1 -0.71,0 0.51,0.51 0 0 1 -0.02,-0.75 z m -5.31,6.11 a 34.77,34.77 0 0 1 2.48,-3.21 0.5,0.5 0 1 1 0.75,0.66 32.61,32.61 0 0 0 -2.45,3.1 0.5,0.5 0 0 1 -0.42,0.22 0.51,0.51 0 0 1 -0.28,-0.09 0.5,0.5 0 0 1 -0.13,-0.69 z m -5,11 A 0.51,0.51 0 0 1 16.98,41.09 0.5,0.5 0 0 1 17.34,41.7 33.86,33.86 0 0 0 16.6,45.57 0.49,0.49 0 0 1 16.11,46 H 16 a 0.51,0.51 0 0 1 -0.43,-0.56 36,36 0 0 1 0.77,-3.96 z M 16,54 A 0.5,0.5 0 0 1 15.5,53.55 35.07,35.07 0 0 1 15.29,50 v -0.49 a 0.51,0.51 0 0 1 0.5,-0.49 v 0 a 0.49,0.49 0 0 1 0.49,0.51 V 50 c 0,1.16 0.06,2.32 0.17,3.46 A 0.5,0.5 0 0 1 16,54 Z m 1.89,7.76 a 0.45,0.45 0 0 1 -0.16,0 0.49,0.49 0 0 1 -0.47,-0.34 32.74,32.74 0 0 1 -1.11,-3.9 0.51090606,0.51090606 0 0 1 1,-0.21 34.75,34.75 0 0 0 1.08,3.78 0.49,0.49 0 0 1 -0.37,0.68 z M 18,38.29 a 0.57,0.57 0 0 1 -0.18,0 0.51,0.51 0 0 1 -0.29,-0.65 35.94,35.94 0 0 1 1.67,-3.69 0.50092415,0.50092415 0 0 1 0.89,0.46 A 32.07,32.07 0 0 0 18.5,38 0.51,0.51 0 0 1 18,38.29 Z m 3.44,30.6 a 0.56,0.56 0 0 1 -0.27,0.08 0.48,0.48 0 0 1 -0.42,-0.23 34,34 0 0 1 -2,-3.53 0.50089919,0.50089919 0 0 1 0.9,-0.44 33.06,33.06 0 0 0 1.93,3.43 0.5,0.5 0 0 1 -0.11,0.69 z M 26.62,75 a 0.52,0.52 0 0 1 -0.36,0.16 0.49,0.49 0 0 1 -0.34,-0.14 35.28,35.28 0 0 1 -2.76,-3 0.50447993,0.50447993 0 0 1 0.78,-0.64 34.87,34.87 0 0 0 2.67,2.9 0.49,0.49 0 0 1 0.01,0.72 z M 33,79.72 A 0.5,0.5 0 0 1 32.57,79.97 0.47,0.47 0 0 1 32.32,79.9 36.11,36.11 0 0 1 29,77.63 0.49,0.49 0 0 1 28.91,76.93 0.51,0.51 0 0 1 29.61,76.84 34.59,34.59 0 0 0 32.87,79 0.49,0.49 0 0 1 33,79.72 Z m 7.35,3.13 A 0.5,0.5 0 0 1 39.87,83.2 H 39.73 A 36.08,36.08 0 0 1 36,81.76 a 0.50159745,0.50159745 0 1 1 0.4,-0.92 32.77,32.77 0 0 0 3.69,1.38 0.51,0.51 0 0 1 0.3,0.63 z m 7.37,1.79 v 0 a 35.6,35.6 0 0 1 -4,-0.5 0.5,0.5 0 0 1 -0.41,-0.58 0.51,0.51 0 0 1 0.59,-0.4 36.11,36.11 0 0 0 3.9,0.48 0.5,0.5 0 0 1 0,1 z M 21.36,50 A 28.64,28.64 0 1 1 50,78.64 28.68,28.68 0 0 1 21.36,50 Z m 34.45,34.23 a 36,36 0 0 1 -4,0.44 v 0 a 0.5,0.5 0 0 1 0,-1 34.29,34.29 0 0 0 3.92,-0.43 0.50635956,0.50635956 0 0 1 0.16,1 z M 63.58,82 a 33.87,33.87 0 0 1 -3.81,1.37 h -0.14 a 0.50559371,0.50559371 0 0 1 -0.15,-1 34.08,34.08 0 0 0 3.71,-1.37 0.5,0.5 0 0 1 0.66,0.27 0.49,0.49 0 0 1 -0.27,0.73 z m 7,-4 a 35.9,35.9 0 0 1 -3.39,2.22 0.57,0.57 0 0 1 -0.25,0.06 0.51,0.51 0 0 1 -0.44,-0.25 0.51,0.51 0 0 1 0.19,-0.68 35.17,35.17 0 0 0 3.31,-2.22 0.5,0.5 0 0 1 0.59,0.8 z m 5.91,-5.53 a 33.79,33.79 0 0 1 -2.8,2.94 0.48,0.48 0 0 1 -0.34,0.13 0.5,0.5 0 0 1 -0.34,-0.86 33.22,33.22 0 0 0 2.71,-2.86 0.52,0.52 0 0 1 0.71,-0.06 0.51,0.51 0 0 1 0.09,0.64 z M 81,65.65 a 34,34 0 0 1 -2,3.5 0.49,0.49 0 0 1 -0.42,0.23 0.46,0.46 0 0 1 -0.27,-0.09 0.49,0.49 0 0 1 -0.14,-0.69 35,35 0 0 0 2,-3.4 0.5,0.5 0 1 1 0.89,0.45 z M 83.77,58 a 35.42,35.42 0 0 1 -1.16,3.89 0.52,0.52 0 0 1 -0.47,0.33 0.47,0.47 0 0 1 -0.17,0 0.51,0.51 0 0 1 -0.3,-0.65 33.3,33.3 0 0 0 1.13,-3.77 0.51305458,0.51305458 0 0 1 1,0.23 z M 84,54.49 H 83.94 A 0.51,0.51 0 0 1 83.5,53.93 34.26,34.26 0 0 0 83.71,50 a 0.5,0.5 0 1 1 1,0 36.52,36.52 0 0 1 -0.23,4 0.51,0.51 0 0 1 -0.48,0.49 z" />
      <path
         inkscape:connector-curvature="0"
         id="path6"
         d="M 50,22.36 A 27.64,27.64 0 1 0 77.64,50 27.67,27.67 0 0 0 50,22.36 Z m 17.62,21.8 -6.49,8.91 v 11 a 0.52,0.52 0 0 1 -0.66,0.48 L 50,61.16 39.52,64.58 h -0.16 a 0.45,0.45 0 0 1 -0.29,-0.1 0.49,0.49 0 0 1 -0.21,-0.4 v -11 L 32.37,44.17 A 0.52,0.52 0 0 1 32.3,43.72 0.51,0.51 0 0 1 32.62,43.4 L 43.12,40 49.6,31.07 a 0.51,0.51 0 0 1 0.8,0 l 6.48,8.93 10.49,3.4 a 0.51,0.51 0 0 1 0.32,0.32 0.52,0.52 0 0 1 -0.07,0.44 z" />
      <path
         inkscape:connector-curvature="0"
         id="path8"
         d="m 56.16,40.71 -6.16,-8.5 -6.16,8.5 a 0.45,0.45 0 0 1 -0.25,0.18 l -10,3.24 6.18,8.48 a 0.53,0.53 0 0 1 0.09,0.3 v 10.5 l 10,-3.26 h 0.16 0.16 l 10,3.26 v -10.5 a 0.53,0.53 0 0 1 0.09,-0.3 l 6.18,-8.48 -10,-3.24 a 0.45,0.45 0 0 1 -0.29,-0.18 z" />
    </g>
    <g
       data-name="Layer 14"
       id="g4767"
       transform="translate(-15.63078,-11.439957)">
      <path
         d="M 50,10 A 40,40 0 1 0 90,50 40,40 0 0 0 50,10 Z m 33.4,32.53 a 0.5,0.5 0 0 1 0.59,0.38 36,36 0 0 1 0.59,4 0.51,0.51 0 0 1 -0.46,0.54 v 0 A 0.5,0.5 0 0 1 83.62,46.99 34.08,34.08 0 0 0 83,43.12 0.49,0.49 0 0 1 83.4,42.53 Z M 80.76,35 a 0.5,0.5 0 0 1 0.66,0.24 34.06,34.06 0 0 1 1.51,3.76 0.5,0.5 0 0 1 -0.31,0.63 H 82.46 A 0.52,0.52 0 0 1 81.98,39.29 31.35,31.35 0 0 0 80.52,35.63 0.5,0.5 0 0 1 80.76,35 Z m -4.32,-6.7 a 0.49,0.49 0 0 1 0.7,0.07 36,36 0 0 1 2.34,3.31 0.51,0.51 0 0 1 -0.42,0.77 0.5,0.5 0 0 1 -0.43,-0.24 32.62,32.62 0 0 0 -2.27,-3.21 0.5,0.5 0 0 1 0.08,-0.71 z m -5.75,-5.54 a 0.51,0.51 0 0 1 0.71,-0.09 37,37 0 0 1 3,2.69 0.5,0.5 0 0 1 0,0.7 0.51,0.51 0 0 1 -0.36,0.15 0.54,0.54 0 0 1 -0.35,-0.14 34.82,34.82 0 0 0 -3,-2.61 0.5,0.5 0 0 1 0,-0.71 z M 63.82,18.7 a 0.49,0.49 0 0 1 0.66,-0.24 35,35 0 0 1 3.58,1.9 0.5,0.5 0 0 1 0.17,0.69 0.52,0.52 0 0 1 -0.43,0.24 0.48,0.48 0 0 1 -0.26,-0.07 33.2,33.2 0 0 0 -3.48,-1.86 0.49,0.49 0 0 1 -0.24,-0.67 z m -7,-2.74 a 32.85,32.85 0 0 1 3.93,1 0.50559371,0.50559371 0 0 1 -0.15,1 h -0.16 a 32.77,32.77 0 0 0 -3.81,-1 0.50894499,0.50894499 0 0 1 0.19,-1 z m -8.07,-0.64 a 34.44,34.44 0 0 1 4.06,0.09 0.5,0.5 0 0 1 0,1 v 0 a 37.06,37.06 0 0 0 -3.94,-0.08 0.49,0.49 0 0 1 -0.52,-0.48 0.51,0.51 0 0 1 0.35,-0.54 z m -8,1.24 a 33.37,33.37 0 0 1 4,-0.85 0.5,0.5 0 0 1 0.57,0.41 0.52,0.52 0 0 1 -0.42,0.58 31.37,31.37 0 0 0 -3.85,0.82 h -0.13 a 0.50487622,0.50487622 0 0 1 -0.14,-1 z m -7.49,3.06 a 35.08,35.08 0 0 1 3.66,-1.75 0.51,0.51 0 0 1 0.65,0.27 0.52,0.52 0 0 1 -0.27,0.66 31.23,31.23 0 0 0 -3.55,1.7 0.54,0.54 0 0 1 -0.25,0.06 0.49,0.49 0 0 1 -0.43,-0.26 0.5,0.5 0 0 1 0.14,-0.69 z m -6.58,4.72 a 35.22,35.22 0 0 1 3.16,-2.55 0.5,0.5 0 0 1 0.69,0.11 0.51,0.51 0 0 1 -0.11,0.7 33.14,33.14 0 0 0 -3.06,2.48 0.51,0.51 0 0 1 -0.71,0 0.51,0.51 0 0 1 -0.02,-0.75 z m -5.31,6.11 a 34.77,34.77 0 0 1 2.48,-3.21 0.5,0.5 0 1 1 0.75,0.66 32.61,32.61 0 0 0 -2.45,3.1 0.5,0.5 0 0 1 -0.42,0.22 0.51,0.51 0 0 1 -0.28,-0.09 0.5,0.5 0 0 1 -0.13,-0.69 z m -5,11 A 0.51,0.51 0 0 1 16.98,41.09 0.5,0.5 0 0 1 17.34,41.7 33.86,33.86 0 0 0 16.6,45.57 0.49,0.49 0 0 1 16.11,46 H 16 a 0.51,0.51 0 0 1 -0.43,-0.56 36,36 0 0 1 0.77,-3.96 z M 16,54 A 0.5,0.5 0 0 1 15.5,53.55 35.07,35.07 0 0 1 15.29,50 v -0.49 a 0.51,0.51 0 0 1 0.5,-0.49 v 0 a 0.49,0.49 0 0 1 0.49,0.51 V 50 c 0,1.16 0.06,2.32 0.17,3.46 A 0.5,0.5 0 0 1 16,54 Z m 1.89,7.76 a 0.45,0.45 0 0 1 -0.16,0 0.49,0.49 0 0 1 -0.47,-0.34 32.74,32.74 0 0 1 -1.11,-3.9 0.51090606,0.51090606 0 0 1 1,-0.21 34.75,34.75 0 0 0 1.08,3.78 0.49,0.49 0 0 1 -0.37,0.68 z M 18,38.29 a 0.57,0.57 0 0 1 -0.18,0 0.51,0.51 0 0 1 -0.29,-0.65 35.94,35.94 0 0 1 1.67,-3.69 0.50092415,0.50092415 0 0 1 0.89,0.46 A 32.07,32.07 0 0 0 18.5,38 0.51,0.51 0 0 1 18,38.29 Z m 3.44,30.6 a 0.56,0.56 0 0 1 -0.27,0.08 0.48,0.48 0 0 1 -0.42,-0.23 34,34 0 0 1 -2,-3.53 0.50089919,0.50089919 0 0 1 0.9,-0.44 33.06,33.06 0 0 0 1.93,3.43 0.5,0.5 0 0 1 -0.11,0.69 z M 26.62,75 a 0.52,0.52 0 0 1 -0.36,0.16 0.49,0.49 0 0 1 -0.34,-0.14 35.28,35.28 0 0 1 -2.76,-3 0.50447993,0.50447993 0 0 1 0.78,-0.64 34.87,34.87 0 0 0 2.67,2.9 0.49,0.49 0 0 1 0.01,0.72 z M 33,79.72 A 0.5,0.5 0 0 1 32.57,79.97 0.47,0.47 0 0 1 32.32,79.9 36.11,36.11 0 0 1 29,77.63 0.49,0.49 0 0 1 28.91,76.93 0.51,0.51 0 0 1 29.61,76.84 34.59,34.59 0 0 0 32.87,79 0.49,0.49 0 0 1 33,79.72 Z m 7.35,3.13 A 0.5,0.5 0 0 1 39.87,83.2 H 39.73 A 36.08,36.08 0 0 1 36,81.76 a 0.50159745,0.50159745 0 1 1 0.4,-0.92 32.77,32.77 0 0 0 3.69,1.38 0.51,0.51 0 0 1 0.3,0.63 z m 7.37,1.79 v 0 a 35.6,35.6 0 0 1 -4,-0.5 0.5,0.5 0 0 1 -0.41,-0.58 0.51,0.51 0 0 1 0.59,-0.4 36.11,36.11 0 0 0 3.9,0.48 0.5,0.5 0 0 1 0,1 z M 21.36,50 A 28.64,28.64 0 1 1 50,78.64 28.68,28.68 0 0 1 21.36,50 Z m 34.45,34.23 a 36,36 0 0 1 -4,0.44 v 0 a 0.5,0.5 0 0 1 0,-1 34.29,34.29 0 0 0 3.92,-0.43 0.50635956,0.50635956 0 0 1 0.16,1 z M 63.58,82 a 33.87,33.87 0 0 1 -3.81,1.37 h -0.14 a 0.50559371,0.50559371 0 0 1 -0.15,-1 34.08,34.08 0 0 0 3.71,-1.37 0.5,0.5 0 0 1 0.66,0.27 0.49,0.49 0 0 1 -0.27,0.73 z m 7,-4 a 35.9,35.9 0 0 1 -3.39,2.22 0.57,0.57 0 0 1 -0.25,0.06 0.51,0.51 0 0 1 -0.44,-0.25 0.51,0.51 0 0 1 0.19,-0.68 35.17,35.17 0 0 0 3.31,-2.22 0.5,0.5 0 0 1 0.59,0.8 z m 5.91,-5.53 a 33.79,33.79 0 0 1 -2.8,2.94 0.48,0.48 0 0 1 -0.34,0.13 0.5,0.5 0 0 1 -0.34,-0.86 33.22,33.22 0 0 0 2.71,-2.86 0.52,0.52 0 0 1 0.71,-0.06 0.51,0.51 0 0 1 0.09,0.64 z M 81,65.65 a 34,34 0 0 1 -2,3.5 0.49,0.49 0 0 1 -0.42,0.23 0.46,0.46 0 0 1 -0.27,-0.09 0.49,0.49 0 0 1 -0.14,-0.69 35,35 0 0 0 2,-3.4 0.5,0.5 0 1 1 0.89,0.45 z M 83.77,58 a 35.42,35.42 0 0 1 -1.16,3.89 0.52,0.52 0 0 1 -0.47,0.33 0.47,0.47 0 0 1 -0.17,0 0.51,0.51 0 0 1 -0.3,-0.65 33.3,33.3 0 0 0 1.13,-3.77 0.51305458,0.51305458 0 0 1 1,0.23 z M 84,54.49 H 83.94 A 0.51,0.51 0 0 1 83.5,53.93 34.26,34.26 0 0 0 83.71,50 a 0.5,0.5 0 1 1 1,0 36.52,36.52 0 0 1 -0.23,4 0.51,0.51 0 0 1 -0.48,0.49 z"
         id="path4761"
         inkscape:connector-curvature="0" />
      <path
         inkscape:connector-curvature="0"
         id="path4763"
         transform="translate(57.864406,0.93631724)"
         d="m -7.8652344,21.423828 c -24.6263226,0 -36.9542976,29.772265 -19.5429686,47.183594 7.904942,7.904942 19.7929506,10.270078 30.1210936,5.992187 C 13.041055,70.321709 19.775391,60.243777 19.775391,49.064453 19.758857,33.806156 7.3930626,21.440362 -7.8652344,21.423828 Z M -23.873047,32.564453 H 8.0878906 a 0.51920211,0.51920211 0 0 1 0.5195313,0.519531 V 65.046875 A 0.51920211,0.51920211 0 0 1 8.0878906,65.564453 H -23.873047 a 0.51920211,0.51920211 0 0 1 -0.519531,-0.517578 V 33.083984 a 0.51920211,0.51920211 0 0 1 0.519531,-0.519531 z m 0.517578,1.039063 V 64.527344 H 7.5683594 V 33.603516 Z" />
    </g>
    <g
       transform="translate(70.422188,-11.439957)"
       id="g4783"
       data-name="Layer 14">
      <path
         inkscape:connector-curvature="0"
         id="path4777"
         d="M 50,10 A 40,40 0 1 0 90,50 40,40 0 0 0 50,10 Z m 33.4,32.53 a 0.5,0.5 0 0 1 0.59,0.38 36,36 0 0 1 0.59,4 0.51,0.51 0 0 1 -0.46,0.54 v 0 A 0.5,0.5 0 0 1 83.62,46.99 34.08,34.08 0 0 0 83,43.12 0.49,0.49 0 0 1 83.4,42.53 Z M 80.76,35 a 0.5,0.5 0 0 1 0.66,0.24 34.06,34.06 0 0 1 1.51,3.76 0.5,0.5 0 0 1 -0.31,0.63 H 82.46 A 0.52,0.52 0 0 1 81.98,39.29 31.35,31.35 0 0 0 80.52,35.63 0.5,0.5 0 0 1 80.76,35 Z m -4.32,-6.7 a 0.49,0.49 0 0 1 0.7,0.07 36,36 0 0 1 2.34,3.31 0.51,0.51 0 0 1 -0.42,0.77 0.5,0.5 0 0 1 -0.43,-0.24 32.62,32.62 0 0 0 -2.27,-3.21 0.5,0.5 0 0 1 0.08,-0.71 z m -5.75,-5.54 a 0.51,0.51 0 0 1 0.71,-0.09 37,37 0 0 1 3,2.69 0.5,0.5 0 0 1 0,0.7 0.51,0.51 0 0 1 -0.36,0.15 0.54,0.54 0 0 1 -0.35,-0.14 34.82,34.82 0 0 0 -3,-2.61 0.5,0.5 0 0 1 0,-0.71 z M 63.82,18.7 a 0.49,0.49 0 0 1 0.66,-0.24 35,35 0 0 1 3.58,1.9 0.5,0.5 0 0 1 0.17,0.69 0.52,0.52 0 0 1 -0.43,0.24 0.48,0.48 0 0 1 -0.26,-0.07 33.2,33.2 0 0 0 -3.48,-1.86 0.49,0.49 0 0 1 -0.24,-0.67 z m -7,-2.74 a 32.85,32.85 0 0 1 3.93,1 0.50559371,0.50559371 0 0 1 -0.15,1 h -0.16 a 32.77,32.77 0 0 0 -3.81,-1 0.50894499,0.50894499 0 0 1 0.19,-1 z m -8.07,-0.64 a 34.44,34.44 0 0 1 4.06,0.09 0.5,0.5 0 0 1 0,1 v 0 a 37.06,37.06 0 0 0 -3.94,-0.08 0.49,0.49 0 0 1 -0.52,-0.48 0.51,0.51 0 0 1 0.35,-0.54 z m -8,1.24 a 33.37,33.37 0 0 1 4,-0.85 0.5,0.5 0 0 1 0.57,0.41 0.52,0.52 0 0 1 -0.42,0.58 31.37,31.37 0 0 0 -3.85,0.82 h -0.13 a 0.50487622,0.50487622 0 0 1 -0.14,-1 z m -7.49,3.06 a 35.08,35.08 0 0 1 3.66,-1.75 0.51,0.51 0 0 1 0.65,0.27 0.52,0.52 0 0 1 -0.27,0.66 31.23,31.23 0 0 0 -3.55,1.7 0.54,0.54 0 0 1 -0.25,0.06 0.49,0.49 0 0 1 -0.43,-0.26 0.5,0.5 0 0 1 0.14,-0.69 z m -6.58,4.72 a 35.22,35.22 0 0 1 3.16,-2.55 0.5,0.5 0 0 1 0.69,0.11 0.51,0.51 0 0 1 -0.11,0.7 33.14,33.14 0 0 0 -3.06,2.48 0.51,0.51 0 0 1 -0.71,0 0.51,0.51 0 0 1 -0.02,-0.75 z m -5.31,6.11 a 34.77,34.77 0 0 1 2.48,-3.21 0.5,0.5 0 1 1 0.75,0.66 32.61,32.61 0 0 0 -2.45,3.1 0.5,0.5 0 0 1 -0.42,0.22 0.51,0.51 0 0 1 -0.28,-0.09 0.5,0.5 0 0 1 -0.13,-0.69 z m -5,11 A 0.51,0.51 0 0 1 16.98,41.09 0.5,0.5 0 0 1 17.34,41.7 33.86,33.86 0 0 0 16.6,45.57 0.49,0.49 0 0 1 16.11,46 H 16 a 0.51,0.51 0 0 1 -0.43,-0.56 36,36 0 0 1 0.77,-3.96 z M 16,54 A 0.5,0.5 0 0 1 15.5,53.55 35.07,35.07 0 0 1 15.29,50 v -0.49 a 0.51,0.51 0 0 1 0.5,-0.49 v 0 a 0.49,0.49 0 0 1 0.49,0.51 V 50 c 0,1.16 0.06,2.32 0.17,3.46 A 0.5,0.5 0 0 1 16,54 Z m 1.89,7.76 a 0.45,0.45 0 0 1 -0.16,0 0.49,0.49 0 0 1 -0.47,-0.34 32.74,32.74 0 0 1 -1.11,-3.9 0.51090606,0.51090606 0 0 1 1,-0.21 34.75,34.75 0 0 0 1.08,3.78 0.49,0.49 0 0 1 -0.37,0.68 z M 18,38.29 a 0.57,0.57 0 0 1 -0.18,0 0.51,0.51 0 0 1 -0.29,-0.65 35.94,35.94 0 0 1 1.67,-3.69 0.50092415,0.50092415 0 0 1 0.89,0.46 A 32.07,32.07 0 0 0 18.5,38 0.51,0.51 0 0 1 18,38.29 Z m 3.44,30.6 a 0.56,0.56 0 0 1 -0.27,0.08 0.48,0.48 0 0 1 -0.42,-0.23 34,34 0 0 1 -2,-3.53 0.50089919,0.50089919 0 0 1 0.9,-0.44 33.06,33.06 0 0 0 1.93,3.43 0.5,0.5 0 0 1 -0.11,0.69 z M 26.62,75 a 0.52,0.52 0 0 1 -0.36,0.16 0.49,0.49 0 0 1 -0.34,-0.14 35.28,35.28 0 0 1 -2.76,-3 0.50447993,0.50447993 0 0 1 0.78,-0.64 34.87,34.87 0 0 0 2.67,2.9 0.49,0.49 0 0 1 0.01,0.72 z M 33,79.72 A 0.5,0.5 0 0 1 32.57,79.97 0.47,0.47 0 0 1 32.32,79.9 36.11,36.11 0 0 1 29,77.63 0.49,0.49 0 0 1 28.91,76.93 0.51,0.51 0 0 1 29.61,76.84 34.59,34.59 0 0 0 32.87,79 0.49,0.49 0 0 1 33,79.72 Z m 7.35,3.13 A 0.5,0.5 0 0 1 39.87,83.2 H 39.73 A 36.08,36.08 0 0 1 36,81.76 a 0.50159745,0.50159745 0 1 1 0.4,-0.92 32.77,32.77 0 0 0 3.69,1.38 0.51,0.51 0 0 1 0.3,0.63 z m 7.37,1.79 v 0 a 35.6,35.6 0 0 1 -4,-0.5 0.5,0.5 0 0 1 -0.41,-0.58 0.51,0.51 0 0 1 0.59,-0.4 36.11,36.11 0 0 0 3.9,0.48 0.5,0.5 0 0 1 0,1 z M 21.36,50 A 28.64,28.64 0 1 1 50,78.64 28.68,28.68 0 0 1 21.36,50 Z m 34.45,34.23 a 36,36 0 0 1 -4,0.44 v 0 a 0.5,0.5 0 0 1 0,-1 34.29,34.29 0 0 0 3.92,-0.43 0.50635956,0.50635956 0 0 1 0.16,1 z M 63.58,82 a 33.87,33.87 0 0 1 -3.81,1.37 h -0.14 a 0.50559371,0.50559371 0 0 1 -0.15,-1 34.08,34.08 0 0 0 3.71,-1.37 0.5,0.5 0 0 1 0.66,0.27 0.49,0.49 0 0 1 -0.27,0.73 z m 7,-4 a 35.9,35.9 0 0 1 -3.39,2.22 0.57,0.57 0 0 1 -0.25,0.06 0.51,0.51 0 0 1 -0.44,-0.25 0.51,0.51 0 0 1 0.19,-0.68 35.17,35.17 0 0 0 3.31,-2.22 0.5,0.5 0 0 1 0.59,0.8 z m 5.91,-5.53 a 33.79,33.79 0 0 1 -2.8,2.94 0.48,0.48 0 0 1 -0.34,0.13 0.5,0.5 0 0 1 -0.34,-0.86 33.22,33.22 0 0 0 2.71,-2.86 0.52,0.52 0 0 1 0.71,-0.06 0.51,0.51 0 0 1 0.09,0.64 z M 81,65.65 a 34,34 0 0 1 -2,3.5 0.49,0.49 0 0 1 -0.42,0.23 0.46,0.46 0 0 1 -0.27,-0.09 0.49,0.49 0 0 1 -0.14,-0.69 35,35 0 0 0 2,-3.4 0.5,0.5 0 1 1 0.89,0.45 z M 83.77,58 a 35.42,35.42 0 0 1 -1.16,3.89 0.52,0.52 0 0 1 -0.47,0.33 0.47,0.47 0 0 1 -0.17,0 0.51,0.51 0 0 1 -0.3,-0.65 33.3,33.3 0 0 0 1.13,-3.77 0.51305458,0.51305458 0 0 1 1,0.23 z M 84,54.49 H 83.94 A 0.51,0.51 0 0 1 83.5,53.93 34.26,34.26 0 0 0 83.71,50 a 0.5,0.5 0 1 1 1,0 36.52,36.52 0 0 1 -0.23,4 0.51,0.51 0 0 1 -0.48,0.49 z" />
      <path
         inkscape:connector-curvature="0"
         id="path4779"
         transform="translate(63.114406,-83.438683)"
         d="m -13.115234,105.79883 c -24.626323,0 -36.954298,29.77226 -19.542969,47.18359 7.904942,7.90494 19.792951,10.27008 30.1210936,5.99219 10.328164,-4.2779 17.0625004,-14.35583 17.0625004,-25.53516 -0.01653,-15.25829 -12.3823284,-27.62409 -27.640625,-27.64062 z m -0.04102,7.04297 a 0.50005,0.50005 0 0 1 0.458984,0.25 l 17.5332035,30.39648 a 0.50005,0.50005 0 0 1 -0.4355469,0.75 l -35.0859376,-0.0156 a 0.50005,0.50005 0 0 1 -0.433594,-0.75 L -13.5625,113.0918 a 0.50005,0.50005 0 0 1 0.357422,-0.24414 0.50005,0.50005 0 0 1 0.04883,-0.006 z m 0.02734,1.5 -16.691406,28.88086 33.3574214,0.0156 z" />
    </g>
  </g>
</svg>
