<?xml version="1.0" encoding="UTF-8"?>
<svg id="svg8773" width="89.775mm" height="91.242mm" version="1.1" viewBox="0 0 89.775 91.242" xmlns="http://www.w3.org/2000/svg" xmlns:cc="http://creativecommons.org/ns#" xmlns:dc="http://purl.org/dc/elements/1.1/" xmlns:rdf="http://www.w3.org/1999/02/22-rdf-syntax-ns#">
 <metadata id="metadata8770">
  <rdf:RDF>
   <cc:Work rdf:about="">
    <dc:format>image/svg+xml</dc:format>
    <dc:type rdf:resource="http://purl.org/dc/dcmitype/StillImage"/>
    <dc:title/>
   </cc:Work>
  </rdf:RDF>
 </metadata>
 <g id="layer1" transform="translate(103.85 -215.85)">
  <g id="g8744" transform="matrix(.35278 0 0 -.35278 -248.94 445.6)">
   <g id="g4284" transform="translate(663.07 595.84)">
    <path id="path4286" d="m0 0c-0.033 0.12-0.087 0.229-0.133 0.341-0.092 0.237-0.191 0.466-0.324 0.681-0.075 0.122-0.154 0.23-0.241 0.342-0.142 0.191-0.3 0.365-0.479 0.528-0.103 0.099-0.208 0.191-0.324 0.279-0.066 0.05-0.116 0.112-0.183 0.157-0.154 0.105-0.324 0.162-0.486 0.246-0.083 0.041-0.145 0.104-0.233 0.141l-120.58 49.896c-1.023 0.424-2.162 0.424-3.185 0l-120.58-49.896c-0.088-0.037-0.154-0.1-0.237-0.141-0.162-0.079-0.328-0.141-0.479-0.241-0.066-0.046-0.116-0.108-0.182-0.158-0.117-0.088-0.216-0.184-0.321-0.279-0.175-0.162-0.333-0.336-0.478-0.528-0.087-0.112-0.166-0.221-0.24-0.341-0.134-0.216-0.234-0.445-0.326-0.682-0.045-0.116-0.099-0.22-0.132-0.341-0.096-0.365-0.163-0.744-0.163-1.131v-145.53c0-1.684 1.015-3.201 2.566-3.842l120.58-49.896c0.055-0.021 0.112-0.012 0.167-0.034 0.461-0.17 0.935-0.282 1.426-0.282 0.49 0 0.965 0.112 1.425 0.282 0.055 0.022 0.113 0.013 0.167 0.034l120.58 49.896c1.551 0.641 2.566 2.158 2.566 3.842v145.53c0 0.387-0.067 0.766-0.171 1.127z" fill="none" stroke-miterlimit="10" stroke-width="5"/>
   </g>
   <g id="g4288" transform="translate(530.29 519.56)">
    <path id="path4290" d="m0 0v-107.47l-87.531 36.216c0.915 2.178 1.424 4.574 1.424 7.09 0 10.047-8.078 18.201-18.087 18.326v108.19l87.395-36.164c-1.138-2.38-1.772-5.051-1.772-7.864 0-10.124 8.207-18.331 18.327-18.331 0.083 0 0.161 0 0.244 5e-3z" fill="none" stroke-miterlimit="10" stroke-width="5"/>
   </g>
   <g id="g4292" transform="translate(548.24 516.96)">
    <path id="path4294" d="m0 0v-107.47l87.531 36.216c-0.915 2.178-1.425 4.574-1.425 7.09 0 10.047 8.078 18.201 18.088 18.326v108.19l-87.396-36.164c1.139-2.38 1.772-5.051 1.772-7.864 0-10.125-8.207-18.331-18.326-18.331-0.083 0-0.161 0-0.244 5e-3z" fill="none" stroke-miterlimit="10" stroke-width="5"/>
   </g>
   <g id="g4296" transform="translate(640.06 596.21)">
    <path id="path4298" d="m0 0-83.174-33.078c-2.692 7.075-10.02 12.147-18.648 12.147-8.556 0-15.842-4.991-18.586-11.975l-85.475 32.906 85.921 36.292c3.03-6.436 10.011-10.944 18.14-10.944 8.201 0 15.233 4.585 18.222 11.111z" fill="none" stroke-miterlimit="10" stroke-width="5"/>
   </g>
   <g id="g4300" transform="translate(413.5 595.62)">
    <path id="path4302" d="M 0,0 125.26,-51.455 250,0" fill="none" stroke-miterlimit="10" stroke-width="5"/>
   </g>
   <g id="g4304" transform="translate(538.76 544.17)">
    <path id="path4306" d="m0 0v-149.17" fill="none" stroke-miterlimit="10" stroke-width="5"/>
   </g>
  </g>
 </g>
</svg>
