<?xml version="1.0" encoding="UTF-8" standalone="no"?>
<svg
   xmlns:dc="http://purl.org/dc/elements/1.1/"
   xmlns:cc="http://creativecommons.org/ns#"
   xmlns:rdf="http://www.w3.org/1999/02/22-rdf-syntax-ns#"
   xmlns:svg="http://www.w3.org/2000/svg"
   xmlns="http://www.w3.org/2000/svg"
   xmlns:sodipodi="http://sodipodi.sourceforge.net/DTD/sodipodi-0.dtd"
   xmlns:inkscape="http://www.inkscape.org/namespaces/inkscape"
   id="svg6617"
   width="152.79553mm"
   height="91.679291mm"
   version="1.1"
   viewBox="0 0 152.79553 91.679293"
   sodipodi:docname="logo.svg"
   inkscape:version="1.0.2 (1.0.2+r75+1)">
  <defs
     id="defs2840" />
  <sodipodi:namedview
     pagecolor="#ffffff"
     bordercolor="#666666"
     borderopacity="1"
     objecttolerance="10"
     gridtolerance="10"
     guidetolerance="10"
     inkscape:pageopacity="0"
     inkscape:pageshadow="2"
     inkscape:window-width="1920"
     inkscape:window-height="1080"
     id="namedview2838"
     showgrid="false"
     fit-margin-top="0"
     fit-margin-left="0"
     fit-margin-right="0"
     fit-margin-bottom="0"
     inkscape:zoom="1.5574397"
     inkscape:cx="277.47017"
     inkscape:cy="206.5074"
     inkscape:window-x="1920"
     inkscape:window-y="0"
     inkscape:window-maximized="0"
     inkscape:current-layer="svg6617" />
  <metadata
     id="metadata6614">
    <rdf:RDF>
      <cc:Work
         rdf:about="">
        <dc:format>image/svg+xml</dc:format>
        <dc:type
           rdf:resource="http://purl.org/dc/dcmitype/StillImage" />
        <dc:title></dc:title>
      </cc:Work>
    </rdf:RDF>
  </metadata>
  <g
     id="layer1"
     transform="translate(79.421583,-190.47121)">
    <g
       id="g6004"
       transform="matrix(0.35278,0,0,-0.35278,-50.827,250.54)">
      <path
         id="path6006"
         d="M 0,0 V -8.549 C 0,-51.933 -35.171,-87.104 -78.555,-87.104 V 78.556 C -35.171,78.556 0,43.386 0,0.002 Z"
         fill="none"
         stroke-miterlimit="10"
         stroke-width="5" />
    </g>
    <g
       id="g6008"
       transform="matrix(0.35278,0,0,-0.35278,-64.602,246.63)">
      <path
         id="path6010"
         d="m 0,0 c 8.422,0 15.249,-6.827 15.249,-15.249 0,-8.421 -6.827,-15.249 -15.249,-15.249 -8.422,0 -15.249,6.828 -15.249,15.249 C -15.249,-6.827 -8.422,0 0,0 Z"
         fill="none"
         stroke-miterlimit="10"
         stroke-width="5" />
    </g>
    <path
       id="path6012"
       d="m -2.9828,281.19 h -75.475 v -58.359 h 75.475 z"
       fill="none"
       stroke-miterlimit="10"
       stroke-width="1.7639" />
    <g
       id="g6014"
       transform="matrix(0.35278,0,0,-0.35278,6.1456,222.83)">
      <path
         id="path6016"
         d="m 0,0 h -25.876 v -165.43 h 213.94 V 0"
         fill="none"
         stroke-miterlimit="10"
         stroke-width="5" />
    </g>
    <g
       id="g6018"
       transform="matrix(0.35278,0,0,-0.35278,19.441,256.43)">
      <path
         id="path6020"
         d="m 0,0 c 3.38,-17.725 18.963,-31.128 37.667,-31.128 6.771,0 13.135,1.755 18.658,4.84"
         fill="none"
         stroke-miterlimit="10"
         stroke-width="5" />
    </g>
    <g
       id="g6022"
       transform="matrix(0.35278,0,0,-0.35278,72.492,222.83)">
      <path
         id="path6024"
         d="m 0,0 v -163.97 l -188.07,86.339 v 165.43 z"
         fill="none"
         stroke-miterlimit="10"
         stroke-width="5" />
    </g>
    <g
       id="g6026"
       transform="matrix(0.35278,0,0,-0.35278,-18.794,252.5)">
      <path
         id="path6028"
         d="m 0,0 c 0,-21.182 -17.172,-38.353 -38.354,-38.353 -21.181,0 -38.352,17.171 -38.352,38.353 0,21.182 17.171,38.353 38.352,38.353 C -17.172,38.353 0,21.182 0,0 Z"
         fill="none"
         stroke-miterlimit="10"
         stroke-width="5" />
    </g>
    <g
       id="g6030"
       transform="matrix(0.35278,0,0,-0.35278,-27.083,245.62)">
      <path
         id="path6032"
         d="M 0,0 C 2.645,0.521 4.594,0.255 4.676,0.244 5.205,0.168 5.631,-0.233 5.736,-0.758 6.85,-6.275 5.043,-12.262 3.644,-15.772 c 0,0 1.413,-4.387 1.413,-7.048 0,-3.453 -1.522,-6.703 -4.176,-8.914 l -11.827,-9.856 c -2.08,-1.731 -5.343,-1.731 -7.416,0 l -11.834,9.86 c -2.652,2.207 -4.172,5.453 -4.172,8.91 0,2.674 2.464,7.398 2.464,7.398 -1.399,3.512 -4.282,9.151 -3.17,14.664 0.105,0.525 0.53,0.927 1.06,1.002 0.082,0.011 2.032,0.277 4.676,-0.244 2.585,-0.509 4.963,-1.601 6.997,-3.198 l 15.077,0.096 c 0,0 4.677,2.593 7.264,3.102 z"
         fill="none"
         stroke-miterlimit="10"
         stroke-width="4" />
    </g>
    <g
       id="g6034"
       transform="matrix(0.35278,0,0,-0.35278,-65.669,226.09)">
      <path
         id="path6036"
         d="M 0,0 H 164.98 V -146.94 H 0.36"
         fill="none"
         stroke-miterlimit="10"
         stroke-width="5" />
    </g>
    <path
       id="path6040"
       d="M 66.575,277.93 H 1.538 v -51.838 h 4.6248"
       fill="none"
       stroke-miterlimit="10"
       stroke-width="1.7639" />
  </g>
</svg>
