<?xml version="1.0" encoding="UTF-8"?>
<svg id="Layer_1" width="664.45" height="494.35" data-name="Layer 1" version="1.1" viewBox="0 0 664.45 494.35" xmlns="http://www.w3.org/2000/svg" xmlns:cc="http://creativecommons.org/ns#" xmlns:dc="http://purl.org/dc/elements/1.1/" xmlns:rdf="http://www.w3.org/1999/02/22-rdf-syntax-ns#">
 <g id="g834" transform="translate(-101.55,-121.47)">
  <path id="path8" class="cls-1" d="m505.4 615.82-60.08-120.18c-17.79-22.61-27.2-48.81-27.2-75.8 0-77.79 78-141.07 173.94-141.07s173.94 63.28 173.94 141.07-78 141.08-173.94 141.08a212.57 212.57 0 0 1-47.81-5.39zm86.66-326.57c-90.13 0-163.46 58.58-163.46 130.59 0 24.77 8.74 48.88 25.27 69.72l0.34 0.42 52.34 104.7 32.94-51.12 3.64 0.92a201.9 201.9 0 0 0 48.93 6c90.13 0 163.46-58.59 163.46-130.6s-73.33-130.63-163.46-130.63z"/>
  <path id="path10" class="cls-1" d="m362.16 458.52-38.86-60.29a212.57 212.57 0 0 1-47.81 5.39c-95.91 0-173.94-63.29-173.94-141.07s78-141.08 173.94-141.08 173.94 63.28 173.94 141.08c0 27-9.4 53.18-27.2 75.79zm-34.09-72.25 32.93 51.11 52.33-104.7 0.34-0.42c16.54-20.84 25.33-44.95 25.33-69.71 0-72-73.32-130.6-163.46-130.6s-163.54 58.58-163.54 130.6 73.33 130.59 163.46 130.59a201.9 201.9 0 0 0 48.93-6z"/>
  <path id="path12" class="cls-1" d="m324.62 320.66a55.27 55.27 0 0 1-19.87-11.84 105.28 105.28 0 0 1-15.93-18.58 143.26 143.26 0 0 1-12.41-22.45q-5.31-12-9.18-23.61-3.89 11.63-9.19 23.61a143.26 143.26 0 0 1-12.41 22.45 104 104 0 0 1-16 18.58 56.29 56.29 0 0 1-19.8 11.84l-8.75-21.09a63.7 63.7 0 0 0 16.92-13.35 112.24 112.24 0 0 0 7.46-9 110.86 110.86 0 0 0 7.75-12 153.93 153.93 0 0 0 7.54-15.35 179.48 179.48 0 0 0 6.81-19.16h-25.82v-22.83h31.26q1.29-6.16 2.15-12.91h24.11l2.15 12.91h31v22.81h-25.41a175.19 175.19 0 0 0 6.81 19.16 166.15 166.15 0 0 0 7.46 15.35 106.55 106.55 0 0 0 7.68 12 112.24 112.24 0 0 0 7.46 9 63.7 63.7 0 0 0 16.93 13.35zm-69.16-18.94v-23h23.39v23z"/>
  <path id="path14" class="cls-1" d="m588.07 464.16q-12.48 0-19.66-6.38t-7.17-17.29q0-11.06 7.17-17.36t19.38-6.32h24.39v-7.89q0-7.32-4.38-11.26t-12.41-4a21.93 21.93 0 0 0-11.77 2.94 11 11 0 0 0-5.45 8h-12.91a22.77 22.77 0 0 1 9.61-16.22q8.32-6 20.81-6 13.62 0 21.52 7t7.89 19.08v54.24h-12.63v-15.04h-0.14a16.21 16.21 0 0 1-7.39 12q-6.52 4.51-16.86 4.5zm3.16-10.16q9.18 0 15.07-4.6a14.28 14.28 0 0 0 5.88-11.76v-11.21h-24.11q-6.45 0-10.18 3.58t-3.74 9.76a12.87 12.87 0 0 0 4.52 10.4q4.53 3.83 12.56 3.83z"/>
 </g>
</svg>
